<svg xmlns="http://www.w3.org/2000/svg" viewBox="0 0 1223 371.1"><path fill="#387ef5" d="M0 0h1223v371.1H0z"/><path d="M946.4 125.8h-8.6s-3.6-.2-3.5 2.9 0 21.7 0 21.7.4 2.1 4.4 2.7 17.1 0 17.1 0 3.2-.2 3.4 1.9c.2 2.2.1 153.4.1 153.4s-.2 2.7 2.5 2.9 27.3.1 27.3.1 2.9.8 3.2-3.3-1-179.2-1-179.2 0-3.1-3-3.4-41.9.1-41.9.1zm87.8-.7s-5.5-.5-5.5 4.4l.2 20.4s.8 4.5 6.2 4.5h97.8l-105.3 149.3s-3 7.7 3.9 7.7l145.8.2c.1 0 3.2-.6 3.2-2.9v-23.9s.1-2.4-2.9-2.4-98.6-.2-98.6-.2l99.1-144.8s5.3-10.8-1.3-12.5c-6.7-1.6-142.6 0-142.6 0zM6.5 6.1h606.1V365H6.5z" fill="#fff"/><path d="M48.4 311h22.3s3.7-.9 4.4-3.5 0-180.3 0-180.3l129.7 185.7s11.2 8.2 11.5-4.9c.4-13.1 0-248.9 0-248.9s0-3.7-3.7-3.7l-24.2.2s-5.3 0-5.3 5l-.2 171.2-125-173.9s-2.6-2.7-6.1-2.5-6.3 0-6.3 0-3.5.4-3.5 4.5v245.2s.1 6 6.2 5.6z" fill="#387ef5"/><path d="M830.1 234.1l8.5-28.5 25.6-87.7L880.5 62c1.7-5.8 1.6-5.9 7.6-5.9h25.2c4.1 0 4.5.6 3.2 4.6l-42.4 138.8-33.3 109.6c-1.6 5.4-6.4 7.7-11.7 5.4-1.1-.5-2-2.1-2.4-3.4L812.6 270l-32.9-96.6-10.2-29.6-1.6-4c-.8 1.9-1.4 3-1.8 4.2l-42.6 134.9-10.3 32.3c-.8 2.7-2.3 3.6-5 3.6-7.1 0-7.2.1-9.3-6.8l-34.3-112-25.6-82.7-16.7-54.2c-.2-.8-.3-1.6-.5-2.8 1.4-.1 2.6-.3 3.7-.3h26.3c3.8-.1 5.7 1.2 6.7 5l17.9 63.5 29.9 104.9c.4 1.3.8 2.5 2.1 3.8l4.3-13.4 16.4-53.1 32.7-105.9c1-3.4 2.5-4.7 6.1-4.6 8.2.3 7.2-.6 9.6 7L808.2 164l20.6 67.6c.2.6.5 1 1.4 2.6h0z" fill="#fff"/><path d="M369.3 290.9a226.68 226.68 0 0 1-7.3 7c-10.5 9.7-23.2 14.9-37.2 16.2-8.4.8-17.1 1-25.4 0-12.3-1.6-22.1-8.3-30.2-17.8-13.6-16-15.9-34.4-10.6-53.9 3.5-12.8 11.7-22.5 21.9-30.5 12.8-10.1 27.4-15.9 43.3-18.2 12.4-1.8 25-2.3 37.3 1.4 4.5 1.4 4.9 1 4.7-3.7-.5-12-3.4-23-12.8-31.4-5.5-4.8-12.2-7.4-19-7.6-9-.4-18.2.6-27.2 1.8-9.2 1.2-17.3 5.7-24.3 11.9-2.8 2.5-3.9 1.6-5.3-1.3-3.4-7.1-6.9-14.1-10.5-21.1-1.2-2.3-1.1-3.9 1.3-5.1 8.4-3.9 16.5-8.6 25.2-11.5 20.7-6.9 41.8-6.4 62.6-.7 17.6 4.8 30.5 15.8 37.1 33.5 4 10.6 5.8 21.6 5.9 32.8l.2 67.1c.1 7.5 1.5 15.1 2.9 22.5 1 5.4 4.3 9.7 8.5 13.4 1.5 1.4 2.7 3.7 3 5.8.5 3.1.4 6.4 0 9.5-.1 1.1-1.7 3-2.6 3-10.8.3-21.7-.4-30.4-7.8-3.7-3.1-6.2-7.7-9.1-11.7-.7-.9-1.1-2.1-1.8-3.7h0zm-3.5-47.6v-19.5c0-2.2-.5-3.7-2.9-4.3-15.1-3.7-30.2-4.1-44.8 2.1-18.2 7.7-30.4 22.2-29 42.6.7 10 5.9 18.6 15.2 21.9 22 7.8 42.4 1.1 57.8-16 3.1-3.4 4-7 3.8-11.4-.2-5.1 0-10.3 0-15.5h0zm63.9-119.2h14.7 17.2c2.8 0 4.4 1 5.4 3.8l23.6 63.5 22.3 60c.2.7.7 1.2 1.4 2.5l1.6-3.2 39.3-102.4 7.8-20.6c.9-2.4 2.1-3.5 4.8-3.5h26.7c3.8 0 4.1.6 2.6 4.1l-50.4 118.5-26.9 63.3c-1.4 3.3-3.3 4.6-6.9 4.6-3.4 0-4.9-1.4-6.2-4.4l-67.2-162.1-9.8-24h0z" fill="#387ef5"/><path d="M999.7 75.5c0 11.5-8.2 19.6-19.8 19.6-11.5 0-19.6-8.2-19.5-19.8 0-11.2 8.3-19.4 19.6-19.5 11.5 0 19.8 8.2 19.7 19.7z" fill="#fff"/></svg>
